<svg id="SvgjsSvg1059" xmlns="http://www.w3.org/2000/svg" version="1.1" xmlns:xlink="http://www.w3.org/1999/xlink" xmlns:svgjs="http://svgjs.com/svgjs" width="27" height="28" viewBox="0 0 27 28"><title>5 G копия</title><desc>Created with Avocode.</desc><defs id="SvgjsDefs1060"></defs><path id="SvgjsPath1061" d="M1106.5 51.9999C1113.96 51.9999 1120 58.0441 1120 65.4998C1120 72.9557 1113.96 78.9999 1106.5 78.9999C1099.04 78.9999 1093 72.9557 1093 65.4998C1093 58.04409999999999 1099.04 51.9999 1106.5 51.9999Z " fill="#ffffff" fill-opacity="1" transform="matrix(1,0,0,1,-1093,-51)"></path><path id="SvgjsPath1062" d="M1106.57 66.4891L1105.85 65.9331C1105.6399999999999 65.75319999999999 1105.34 65.5142 1105.34 65.0779C1105.34 64.6395 1105.6399999999999 64.3613 1105.8999999999999 64.103C1106.7299999999998 63.447199999999995 1107.56 62.748799999999996 1107.56 61.278299999999994C1107.56 59.765899999999995 1106.61 58.9704 1106.1499999999999 58.59289999999999L1107.3799999999999 58.59289999999999L1108.6599999999999 57.78159999999999L1104.7699999999998 57.78159999999999C1103.6999999999998 57.78159999999999 1102.1599999999999 58.03529999999999 1101.0299999999997 58.97039999999999C1100.1799999999998 59.70669999999999 1099.7599999999998 60.72119999999999 1099.7599999999998 61.63549999999999C1099.7599999999998 63.186099999999996 1100.9499999999998 64.75899999999999 1103.0499999999997 64.75899999999999C1103.2399999999998 64.75899999999999 1103.4599999999998 64.73929999999999 1103.6799999999998 64.71879999999999C1103.58 64.95779999999999 1103.4799999999998 65.15729999999999 1103.4799999999998 65.49519999999998C1103.4799999999998 66.11109999999998 1103.7999999999997 66.48889999999999 1104.0699999999997 66.84609999999998C1103.1799999999996 66.90799999999997 1101.5199999999998 67.00689999999997 1100.2999999999997 67.76299999999998C1099.1299999999997 68.45969999999998 1098.7699999999998 69.47299999999997 1098.7699999999998 70.18909999999998C1098.7699999999998 71.66169999999998 1100.1599999999999 73.03319999999998 1103.0299999999997 73.03319999999998C1106.4299999999998 73.03319999999998 1108.2299999999998 71.14479999999998 1108.2299999999998 69.27479999999998C1108.2299999999998 67.90079999999999 1107.4399999999998 67.22489999999999 1106.5699999999997 66.48909999999998ZM1104 72.2C1101.88 72.2 1100.51 71.1844 1100.51 69.7714C1100.51 68.3597 1101.78 67.8819 1102.21 67.7237C1103.05 67.4433 1104.1100000000001 67.4044 1104.29 67.4044C1104.49 67.4044 1104.59 67.4044 1104.75 67.42439999999999C1106.25 68.4986 1106.9 69.0337 1106.9 70.0513C1106.9 71.28269999999999 1105.9 72.2 1104 72.2ZM1103.98 64.2015C1102.27 64.2015 1101.5 61.9939 1101.5 60.6622C1101.5 60.143499999999996 1101.6 59.608 1101.94 59.1898C1102.25 58.791399999999996 1102.81 58.5331 1103.3200000000002 58.5331C1104.9600000000003 58.5331 1105.8200000000002 60.7603 1105.8200000000002 62.192699999999995C1105.8200000000002 62.551199999999994 1105.7800000000002 63.186099999999996 1105.3200000000002 63.6455C1105.0000000000002 63.9643 1104.4700000000003 64.2015 1103.9800000000002 64.2015ZM1111.56 64.1713L1111.56 62.182700000000004L1110.58 62.182700000000004L1110.58 64.1713L1108.61 64.1713L1108.61 65.1644L1110.58 65.1644L1110.58 67.1656L1111.56 67.1656L1111.56 65.1644L1113.55 65.1644L1113.55 64.1713Z " fill="#347c9f" fill-opacity="1" transform="matrix(1,0,0,1,-1093,-51)"></path></svg>